# xmcd CD database file
#
# Track frame offsets:
#	150
#	13505
#	27509
#	40888
#	57078
#	69310
#	84074
#	101887
#	121223
#	139404
#	151215
#	164914
#	179015
#	198223
#	214313
#	229949
#	242808
#	267726
#	303740
#
# Disc length: 4123 seconds
#
# Revision: 0
# Processed by: cddbd v1.5.1PL0 Copyright (c) Steve Scherf et al.
# Submitted via: CDex 1.51
#
DISCID=18101913
DTITLE=Charlie Mc Coy - Bouchon
DYEAR=2005
DGENRE=Country
TTITLE0=Scotland
TTITLE1=Texas when I die
TTITLE2=Thinking with my heart
TTITLE3=You where always on my mind
TTITLE4=Sugarfoot rag
TTITLE5=Six days on the road
TTITLE6=Funky country living
TTITLE7=The devil went down to Georgia
TTITLE8=Crazy
TTITLE9=You can't get off with your shoes on
TTITLE10=Hot rod fever
TTITLE11=Bayou Lafayette
TTITLE12=Big boss man
TTITLE13=Hey Elvis
TTITLE14=Under the boardwalk
TTITLE15=Choo choo ch'boogie
TTITLE16=Stand by me
TTITLE17=Orange blossom very special
TTITLE18=Amazing grace
EXTD=YEAR: 2005
EXTT0=
EXTT1=
EXTT2=
EXTT3=
EXTT4=
EXTT5=
EXTT6=
EXTT7=
EXTT8=
EXTT9=
EXTT10=
EXTT11=
EXTT12=
EXTT13=
EXTT14=
EXTT15=
EXTT16=
EXTT17=
EXTT18=
PLAYORDER=
